<svg width="41" height="41" viewBox="0 0 41 41" fill="none" xmlns="http://www.w3.org/2000/svg">
<circle cx="20.4396" cy="20.4396" r="20.4396" fill="#96351E" fill-opacity="0.04"/>
<circle cx="20.4396" cy="20.4396" r="20.4396" fill="#FAF6F1" fill-opacity="0.2"/>
<path d="M24.9747 19.7884C24.9653 18.1733 25.697 16.956 27.1748 16.0585C26.3483 14.8744 25.0979 14.2231 23.4496 14.0976C21.889 13.9745 20.1815 15.007 19.5563 15.007C18.8956 15.007 17.3847 14.1402 16.1958 14.1402C13.7424 14.1781 11.135 16.0964 11.135 19.9992C11.135 21.1525 11.3458 22.3437 11.7673 23.5704C12.3309 25.1855 14.3629 29.1428 16.4824 29.0788C17.5907 29.0528 18.3746 28.2926 19.8168 28.2926C21.2164 28.2926 21.9411 29.0788 23.1773 29.0788C25.3158 29.048 27.1535 25.4507 27.6887 23.8309C24.8208 22.4787 24.9747 19.8713 24.9747 19.7884ZM22.4858 12.5654C23.6864 11.1397 23.5775 9.84196 23.542 9.37543C22.481 9.437 21.2543 10.0977 20.5557 10.91C19.786 11.7815 19.3337 12.859 19.4308 14.0739C20.577 14.1616 21.6237 13.5719 22.4858 12.5654Z" fill="#FEF9FA"/>
</svg>
