<svg width="41" height="41" viewBox="0 0 41 41" fill="none" xmlns="http://www.w3.org/2000/svg">
<circle cx="20.8823" cy="20.2882" r="20.1176" fill="#96351E" fill-opacity="0.04"/>
<circle cx="20.8823" cy="20.2882" r="20.1176" fill="#FAF6F1" fill-opacity="0.2"/>
<path d="M30.8461 20.3706C30.8461 14.7287 26.3006 10.1553 20.6942 10.1553C15.0853 10.1565 10.5398 14.7287 10.5398 20.3719C10.5398 25.4694 14.2528 29.6951 19.1054 30.4616V23.3235H16.5294V20.3719H19.108V18.1194C19.108 15.5599 20.6244 14.1462 22.9429 14.1462C24.0545 14.1462 25.2156 14.3455 25.2156 14.3455V16.8581H23.9352C22.6751 16.8581 22.2817 17.6461 22.2817 18.4544V20.3706H25.0963L24.6471 23.3223H22.2804V30.4603C27.133 29.6938 30.8461 25.4681 30.8461 20.3706Z" fill="#FEF9FA"/>
</svg>
