<svg width="42" height="41" viewBox="0 0 42 41" fill="none" xmlns="http://www.w3.org/2000/svg">
<circle cx="21" cy="20.2882" r="20.1176" fill="#96351E" fill-opacity="0.04"/>
<circle cx="21" cy="20.2882" r="20.1176" fill="#FAF6F1" fill-opacity="0.2"/>
<path d="M31.394 18.361H21.2156V22.4583H27.0302C26.7795 23.7827 26.0188 24.9029 24.8723 25.6534C23.9032 26.288 22.6664 26.6633 21.2128 26.6633C18.3985 26.6633 16.018 24.8008 15.1672 22.2983C14.9531 21.6637 14.8291 20.9849 14.8291 20.2869C14.8291 19.5888 14.9531 18.9101 15.1672 18.2754C16.0208 15.7757 18.4013 13.9132 21.2156 13.9132C22.8017 13.9132 24.2243 14.4485 25.3455 15.497L28.4444 12.4592C26.571 10.7485 24.1285 9.70001 21.2156 9.70001C16.9927 9.70001 13.3389 12.0729 11.5613 15.5329C10.8288 16.9621 10.4119 18.579 10.4119 20.2896C10.4119 22.0003 10.8288 23.6144 11.5613 25.0436C13.3389 28.5036 16.9927 30.8765 21.2156 30.8765C24.1342 30.8765 26.5795 29.9273 28.3655 28.3105C30.408 26.4674 31.5883 23.7524 31.5883 20.5269C31.5883 19.7764 31.5207 19.0563 31.394 18.361Z" fill="#FEF9FA"/>
</svg>
